<svg width="20" height="21" viewBox="0 0 20 21" fill="none" xmlns="http://www.w3.org/2000/svg">
<path d="M6.49 17.7608C6.514 17.4248 6.562 17.0898 6.634 16.7598C6.697 16.4648 6.888 15.6298 7.168 14.4198L7.175 14.3898L7.562 12.7218C7.641 12.3818 7.702 12.1178 7.743 12.0298C7.54882 11.5809 7.45202 11.0959 7.459 10.6068C7.459 9.26982 8.215 8.23382 9.195 8.23382C9.555 8.22782 9.899 8.38382 10.137 8.65982C10.375 8.93482 10.485 9.30382 10.439 9.65582C10.439 10.1088 10.354 10.4538 9.986 11.6908C9.915 11.9288 9.866 12.0948 9.82 12.2618C9.769 12.4498 9.725 12.6198 9.688 12.7838C9.592 13.1698 9.68 13.5808 9.925 13.8898C10.0439 14.0408 10.1973 14.1611 10.3724 14.2404C10.5475 14.3198 10.7391 14.3559 10.931 14.3458C12.423 14.3458 13.531 12.3608 13.531 9.79782C13.531 7.82782 12.241 6.52382 10.099 6.52382C9.56279 6.50389 9.02828 6.59545 8.52928 6.79271C8.03028 6.98997 7.57764 7.28864 7.2 7.66982C6.81426 8.05936 6.50994 8.5218 6.30477 9.03017C6.0996 9.53854 5.9977 10.0827 6.005 10.6308C5.98014 11.2216 6.16111 11.8026 6.517 12.2748C6.698 12.4148 6.767 12.6578 6.692 12.8648C6.651 13.0328 6.552 13.4168 6.516 13.5448C6.50556 13.6077 6.48061 13.6673 6.44311 13.7189C6.40562 13.7704 6.35662 13.8125 6.3 13.8418C6.24526 13.8704 6.18449 13.8855 6.12274 13.8858C6.061 13.8862 6.00006 13.8718 5.945 13.8438C4.785 13.3648 4.149 12.0658 4.149 10.4038C4.149 7.41882 6.64 4.81982 10.341 4.81982C13.476 4.81982 15.822 7.14882 15.822 9.95982C15.822 13.4918 13.89 16.0638 11.132 16.0638C10.7397 16.0752 10.3502 15.9944 9.99488 15.8278C9.63953 15.6612 9.32822 15.4136 9.086 15.1048L9.043 15.2818L8.836 16.1338L8.834 16.1408C8.688 16.7408 8.586 17.1578 8.546 17.3148C8.44 17.6698 8.306 18.0178 8.146 18.3548C10.1359 18.8285 12.2316 18.522 14.0025 17.4983C15.7734 16.4746 17.0849 14.8114 17.6674 12.8506C18.2499 10.8898 18.0593 8.78039 17.1346 6.95583C16.2099 5.13128 14.6215 3.73023 12.6957 3.04064C10.77 2.35105 8.65322 2.4253 6.78053 3.24813C4.90784 4.07097 3.42147 5.57988 2.62691 7.46474C1.83235 9.3496 1.78996 11.4672 2.50845 13.3824C3.22694 15.2975 4.65174 16.8647 6.49 17.7618V17.7608ZM10 20.5698C4.477 20.5698 0 16.0928 0 10.5698C0 5.04682 4.477 0.569824 10 0.569824C15.523 0.569824 20 5.04682 20 10.5698C20 16.0928 15.523 20.5698 10 20.5698Z" fill="#004236"/>
</svg>
