<svg width="20" height="20" viewBox="0 0 20 20" fill="none" xmlns="http://www.w3.org/2000/svg">
<path d="M9.871 19.3338C8.681 19.3338 7.887 18.7728 7.178 18.2778C6.675 17.9208 6.202 17.5818 5.645 17.4878C5.3798 17.4422 5.11109 17.4201 4.842 17.4218C4.37 17.4218 3.995 17.4928 3.728 17.5468C3.558 17.5768 3.416 17.6048 3.304 17.6048C3.188 17.6048 3.041 17.5728 2.984 17.3768C2.934 17.2168 2.903 17.0648 2.872 16.9178C2.792 16.5478 2.725 16.3208 2.586 16.2978C1.097 16.0708 0.206003 15.7278 0.0320026 15.3218C0.0180026 15.2778 0.00100247 15.2318 0.00100247 15.1968C-0.00899753 15.0718 0.0810026 14.9698 0.206003 14.9468C1.387 14.7508 2.448 14.1228 3.344 13.0888C4.04 12.2858 4.379 11.5098 4.41 11.4258C4.41 11.4158 4.419 11.4158 4.419 11.4158C4.589 11.0648 4.624 10.7658 4.521 10.5208C4.33 10.0608 3.696 9.86482 3.264 9.73082C3.153 9.70082 3.059 9.66482 2.979 9.63782C2.609 9.49082 1.993 9.17782 2.074 8.74582C2.132 8.43382 2.546 8.21082 2.885 8.21082C2.979 8.21082 3.059 8.22482 3.125 8.26082C3.505 8.43382 3.848 8.52282 4.142 8.52282C4.508 8.52282 4.682 8.38482 4.726 8.34082C4.71669 8.14303 4.70502 7.94535 4.691 7.74782C4.601 6.38282 4.499 4.68882 4.931 3.71782C6.229 0.810824 8.984 0.577824 9.8 0.577824L10.156 0.569824H10.206C11.021 0.569824 13.776 0.796824 15.074 3.70882C15.511 4.67982 15.404 6.37882 15.314 7.73882L15.306 7.80582C15.296 7.98782 15.283 8.16182 15.274 8.34082C15.319 8.37582 15.479 8.50982 15.809 8.51382C16.095 8.50582 16.407 8.41182 16.763 8.25082C16.8616 8.20821 16.9676 8.18577 17.075 8.18482C17.2 8.18482 17.325 8.21482 17.432 8.25082H17.441C17.74 8.36282 17.936 8.57182 17.936 8.79082C17.945 8.99582 17.784 9.30782 17.022 9.61582C16.942 9.64582 16.848 9.68282 16.737 9.70882C16.313 9.83882 15.68 10.0438 15.479 10.4988C15.368 10.7388 15.413 11.0468 15.582 11.3938C15.582 11.4038 15.591 11.4038 15.591 11.4038C15.64 11.5278 16.928 14.4528 19.795 14.9298C19.8536 14.9397 19.9067 14.9705 19.9443 15.0164C19.982 15.0624 20.0018 15.1204 20 15.1798C20 15.2238 19.991 15.2688 19.969 15.3088C19.795 15.7188 18.912 16.0528 17.414 16.2848C17.276 16.3068 17.209 16.5348 17.129 16.9048C17.097 17.0591 17.0596 17.2122 17.017 17.3638C16.973 17.5108 16.879 17.5908 16.719 17.5908H16.696C16.594 17.5908 16.456 17.5778 16.273 17.5418C15.9065 17.4637 15.5327 17.4249 15.158 17.4258C14.895 17.4258 14.623 17.4488 14.356 17.4928C13.803 17.5828 13.326 17.9258 12.822 18.2828C12.105 18.7728 11.307 19.3338 10.125 19.3338H9.871Z" fill="#004236"/>
</svg>
