<svg width="60" height="51" viewBox="0 0 60 51" fill="none" xmlns="http://www.w3.org/2000/svg">
<g opacity="0.1">
<path d="M5.51239 29.1752C6.26609 28.5336 6.39691 27.5245 6.3533 26.4157C6.39068 25.0142 6.12282 24.5346 3.89285 25.8551C1.68778 27.3625 2.08644 29.1067 2.66573 29.4057C3.68106 30.0971 4.88949 29.7233 5.51239 29.1752Z" fill="#D6CD56"/>
<path d="M11.3561 21.6322C12.1098 20.9906 12.2407 19.9815 12.1971 18.8728C12.2344 17.4712 11.9666 16.9916 9.7366 18.3122C7.53153 19.8134 7.93019 21.5637 8.50948 21.8627C9.52481 22.5479 10.7332 22.1741 11.3561 21.6322Z" fill="#D6CD56"/>
<path d="M3.30766 21.9291C4.06137 21.2875 4.18595 20.2784 4.14235 19.1697C4.17972 17.7681 3.91189 17.2885 1.68191 18.609C-0.523154 20.1165 -0.124499 21.8606 0.454797 22.1596C1.47635 22.8447 2.68477 22.471 3.30766 21.9291Z" fill="#D6CD56"/>
<path d="M10.6257 13.9135C11.3794 13.2719 11.5102 12.2628 11.4666 11.154C11.504 9.7525 11.2361 9.27287 9.00613 10.5934C6.80107 12.1008 7.19972 13.8449 7.77902 14.1439C8.79434 14.8291 10.0028 14.4554 10.6257 13.9135Z" fill="#D6CD56"/>
<path d="M19.2413 14.6752C19.995 14.0336 20.1196 13.0245 20.076 11.9157C20.1133 10.5142 19.8455 10.0346 17.6155 11.3551C15.4104 12.8625 15.8091 14.6067 16.3884 14.9057C17.4162 15.5908 18.6246 15.2233 19.2413 14.6752Z" fill="#D6CD56"/>
<path d="M13.7038 29.7963C14.4575 29.1547 14.582 28.1456 14.5447 27.0368C14.582 25.6353 14.3142 25.1557 12.0842 26.4762C9.87292 27.9836 10.2778 29.7278 10.8571 30.0267C11.8724 30.7119 13.0809 30.3382 13.7038 29.7963Z" fill="#D6CD56"/>
<path d="M19.8702 24.1658C20.6239 23.5242 20.7484 22.5151 20.7048 21.4001C20.7422 19.9986 20.4744 19.519 18.2444 20.8395C16.0393 22.3469 16.438 24.0973 17.0173 24.39C18.0389 25.0814 19.2473 24.7077 19.8702 24.1658Z" fill="#D6CD56"/>
<path d="M16.4518 46.2025C17.2055 45.5609 17.3364 44.5518 17.2928 43.4431C17.3301 42.0416 17.0623 41.5619 14.8323 42.8825C12.6272 44.3899 13.0259 46.134 13.6052 46.433C14.6205 47.1182 15.8289 46.7445 16.4518 46.2025Z" fill="#D6CD56"/>
<path d="M22.2956 38.6596C23.0493 38.018 23.1801 37.0089 23.1365 35.9001C23.1739 34.4986 22.906 34.019 20.676 35.3395C18.471 36.8469 18.8696 38.5973 19.4489 38.89C20.4643 39.5752 21.6727 39.2015 22.2956 38.6596Z" fill="#D6CD56"/>
<path d="M14.2467 38.9588C15.0004 38.3172 15.1313 37.3081 15.0877 36.1931C15.125 34.7916 14.8572 34.3119 12.6272 35.6325C10.4222 37.1399 10.8208 38.8902 11.4001 39.183C12.4154 39.8744 13.6238 39.5007 14.2467 38.9588Z" fill="#D6CD56"/>
<path d="M21.5593 30.9369C22.313 30.2953 22.4438 29.2862 22.4002 28.1775C22.4375 26.7759 22.1697 26.2963 19.9397 27.6169C17.7347 29.1243 18.1333 30.8684 18.7126 31.1674C19.7342 31.8588 20.9426 31.4851 21.5593 30.9369Z" fill="#D6CD56"/>
<path d="M30.1804 31.7048C30.9341 31.0633 31.0649 30.0542 31.0213 28.9392C31.0586 27.5377 30.7908 27.058 28.5608 28.3786C26.3558 29.886 26.7544 31.6363 27.3337 31.9291C28.349 32.6205 29.5575 32.2468 30.1804 31.7048Z" fill="#D6CD56"/>
<path d="M24.6432 46.8263C25.397 46.1847 25.5278 45.1756 25.4842 44.0669C25.5215 42.6653 25.2537 42.1795 23.0237 43.5062C20.8186 45.0137 21.2173 46.7578 21.7966 47.0568C22.8119 47.742 24.0203 47.3682 24.6432 46.8263Z" fill="#D6CD56"/>
<path d="M30.8092 41.1908C31.5629 40.5492 31.6938 39.5401 31.6502 38.4314C31.6875 37.0298 31.4197 36.5502 29.1897 37.8708C26.9847 39.3782 27.3833 41.1223 27.9626 41.4213C28.9779 42.1127 30.1863 41.739 30.8092 41.1908Z" fill="#D6CD56"/>
<path d="M29.2331 24.2338C29.9868 23.5922 30.1176 22.5831 30.074 21.4743C30.1114 20.0728 29.8435 19.5932 27.6135 20.9137C25.4085 22.4211 25.8071 24.1653 26.3864 24.4643C27.4018 25.1557 28.6102 24.7819 29.2331 24.2338Z" fill="#D6CD56"/>
<path d="M35.0768 16.6892C35.8305 16.0476 35.9614 15.0385 35.9178 13.9236C35.9551 12.522 35.6873 12.0424 33.4573 13.3629C31.2522 14.8704 31.6509 16.6207 32.2302 16.9135C33.2455 17.6049 34.4539 17.2311 35.0768 16.6892Z" fill="#D6CD56"/>
<path d="M27.0284 16.99C27.7821 16.3484 27.9129 15.3393 27.8631 14.2243C27.9004 12.8228 27.6326 12.3432 25.4026 13.6637C23.1975 15.1711 23.5962 16.9215 24.1755 17.2143C25.1971 17.9057 26.4055 17.5319 27.0284 16.99Z" fill="#D6CD56"/>
<path d="M34.3467 8.97206C35.1005 8.33047 35.225 7.32138 35.1814 6.21262C35.2188 4.8111 34.9509 4.33146 32.721 5.652C30.5159 7.15942 30.9146 8.90354 31.4939 9.20254C32.5154 9.88772 33.7238 9.51398 34.3467 8.97206Z" fill="#D6CD56"/>
<path d="M42.9636 9.73378C43.7173 9.09219 43.8481 8.0831 43.8045 6.97434C43.8418 5.57282 43.574 5.09318 41.344 6.41372C39.139 7.92114 39.5376 9.66525 40.1169 9.96424C41.1322 10.6557 42.3469 10.2819 42.9636 9.73378Z" fill="#D6CD56"/>
<path d="M37.4249 24.8572C38.1786 24.2156 38.3094 23.2065 38.2596 22.0915C38.2969 20.69 38.0291 20.2104 35.7991 21.5309C33.594 23.0383 33.9927 24.7887 34.572 25.0814C35.5935 25.7729 36.802 25.3991 37.4249 24.8572Z" fill="#D6CD56"/>
<path d="M43.5905 19.226C44.3442 18.5844 44.475 17.5753 44.4314 16.4665C44.4688 15.065 44.2009 14.5854 41.971 15.9059C39.7659 17.4133 40.1646 19.1574 40.7439 19.4564C41.7592 20.1416 42.9676 19.7679 43.5905 19.226Z" fill="#D6CD56"/>
<path d="M41.0514 41.5385C41.8051 40.8969 41.9359 39.8878 41.8923 38.779C41.9297 37.3775 41.6619 36.8979 39.4319 38.2184C37.2268 39.7258 37.6255 41.47 38.2048 41.7689C39.2201 42.4541 40.4285 42.0804 41.0514 41.5385Z" fill="#D6CD56"/>
<path d="M46.8932 33.99C47.647 33.3484 47.7778 32.3393 47.7342 31.2243C47.7715 29.8228 47.5037 29.3432 45.2737 30.6637C43.0686 32.1711 43.4673 33.9215 44.0466 34.2142C45.0619 34.9057 46.2703 34.5319 46.8932 33.99Z" fill="#D6CD56"/>
<path d="M38.8448 34.2869C39.5985 33.6453 39.7231 32.6362 39.6795 31.5212C39.7168 30.1197 39.449 29.6401 37.219 30.9606C35.014 32.468 35.4126 34.2184 35.9919 34.5111C37.0135 35.2025 38.2281 34.8288 38.8448 34.2869Z" fill="#D6CD56"/>
<path d="M46.1651 26.2728C46.9188 25.6313 47.0434 24.6222 46.9998 23.5134C47.0372 22.1119 46.7693 21.6322 44.5393 22.9528C42.3343 24.4602 42.7329 26.2043 43.3122 26.5033C44.3338 27.1885 45.5422 26.8148 46.1651 26.2728Z" fill="#D6CD56"/>
<path d="M23.8268 6.73768C24.5805 6.0961 24.7051 5.087 24.6678 3.97824C24.7051 2.57672 24.4373 2.09708 22.2073 3.41763C20.0022 4.92504 20.4009 6.67539 20.9802 6.96815C22.0017 7.65334 23.2102 7.2796 23.8268 6.73768Z" fill="#D6CD56"/>
<path d="M34.5104 49.7611C35.2641 49.1195 35.3887 48.1104 35.3513 47.0017C35.3887 45.6002 35.1209 45.1205 32.8909 46.4411C30.6858 47.9485 31.0845 49.6926 31.6638 49.9916C32.6853 50.6768 33.8875 50.303 34.5104 49.7611Z" fill="#D6CD56"/>
<path d="M51.3972 16.9721C52.1509 16.3305 52.2817 15.3214 52.2381 14.2126C52.2754 12.8111 52.0076 12.3315 49.7776 13.652C47.5725 15.1594 47.9712 16.9035 48.5505 17.2025C49.5658 17.8877 50.7743 17.514 51.3972 16.9721Z" fill="#D6CD56"/>
<path d="M14.9636 4.10329C15.7173 3.4617 15.8481 2.45261 15.8045 1.33762C15.8418 -0.0639061 15.574 -0.543539 13.344 0.777006C11.139 2.28442 11.5376 4.02854 12.1169 4.32753C13.1322 5.01895 14.3407 4.64521 14.9636 4.10329Z" fill="#D6CD56"/>
<path d="M6.14909 40.4509C6.90279 39.8094 7.03361 38.8003 6.99 37.6853C7.02738 36.2837 6.75954 35.8041 4.52956 37.1247C2.3245 38.6321 2.72316 40.3824 3.30245 40.6752C4.31778 41.3728 5.52619 40.9991 6.14909 40.4509Z" fill="#D6CD56"/>
<path d="M59.151 19.0408C59.9047 18.3992 60.0356 17.3901 59.992 16.2751C60.0293 14.8736 59.7615 14.394 57.5315 15.7145C55.3265 17.2219 55.7251 18.9723 56.3044 19.265C57.326 19.9627 58.5344 19.5889 59.151 19.0408Z" fill="#D6CD56"/>
<path d="M54.778 27.0369C55.5317 26.3953 55.6625 25.3862 55.6189 24.2712C55.6563 22.8697 55.3884 22.3901 53.1585 23.7106C50.9534 25.218 51.3521 26.9684 51.9314 27.2611C52.9467 27.9525 54.1613 27.5788 54.778 27.0369Z" fill="#D6CD56"/>
<path d="M49.2413 42.158C49.995 41.5164 50.1196 40.5073 50.076 39.3923C50.1133 37.9908 49.8455 37.5112 47.6155 38.8317C45.4104 40.3391 45.8091 42.0895 46.3884 42.3822C47.4099 43.0736 48.6184 42.6999 49.2413 42.158Z" fill="#D6CD56"/>
<path d="M55.4089 36.5267C56.1626 35.8852 56.2934 34.8761 56.2498 33.7673C56.2872 32.3658 56.0193 31.8862 53.7893 33.2067C51.5843 34.7141 51.9829 36.4582 52.5622 36.7572C53.5775 37.4424 54.7922 37.0687 55.4089 36.5267Z" fill="#D6CD56"/>
</g>
</svg>
