<svg width="81" height="68" viewBox="0 0 81 68" fill="none" xmlns="http://www.w3.org/2000/svg">
<g opacity="0.1">
<path d="M7.35123 38.9003C8.35619 38.0449 8.53061 36.6994 8.47247 35.221C8.52231 33.3523 8.16516 32.7128 5.1918 34.4735C2.25167 36.4835 2.78322 38.809 3.55563 39.2076C4.90942 40.1295 6.52068 39.6312 7.35123 38.9003Z" fill="#D6CD56"/>
<path d="M15.1422 28.8418C16.1472 27.9863 16.3216 26.6408 16.2635 25.1624C16.3133 23.2937 15.9562 22.6542 12.9828 24.4149C10.0427 26.4166 10.5742 28.7504 11.3466 29.149C12.7004 30.0627 14.3117 29.5643 15.1422 28.8418Z" fill="#D6CD56"/>
<path d="M4.4103 29.2402C5.41526 28.3847 5.58137 27.0392 5.52323 25.5609C5.57306 23.6921 5.21594 23.0526 2.24258 24.8134C-0.697551 26.8233 -0.166002 29.1488 0.606406 29.5475C1.9685 30.4611 3.57975 29.9628 4.4103 29.2402Z" fill="#D6CD56"/>
<path d="M14.1696 18.5527C15.1746 17.6972 15.349 16.3517 15.2908 14.8734C15.3407 13.0046 14.9835 12.3651 12.0102 14.1259C9.07003 16.1358 9.60158 18.4613 10.374 18.86C11.7278 19.7736 13.339 19.2753 14.1696 18.5527Z" fill="#D6CD56"/>
<path d="M25.6564 19.5644C26.6614 18.7089 26.8275 17.3635 26.7693 15.8851C26.8192 14.0163 26.462 13.3768 23.4887 15.1376C20.5485 17.1475 21.0801 19.473 21.8525 19.8717C23.2229 20.7853 24.8342 20.2953 25.6564 19.5644Z" fill="#D6CD56"/>
<path d="M18.2718 39.7324C19.2767 38.8769 19.4428 37.5314 19.393 36.053C19.4428 34.1843 19.0857 33.5448 16.1123 35.3056C13.1639 37.3155 13.7037 39.641 14.4761 40.0397C15.8299 40.9533 17.4412 40.455 18.2718 39.7324Z" fill="#D6CD56"/>
<path d="M26.4943 32.2251C27.4992 31.3696 27.6654 30.0241 27.6072 28.5374C27.657 26.6687 27.2999 26.0292 24.3266 27.7899C21.3864 29.7999 21.918 32.1337 22.6904 32.524C24.0525 33.446 25.6637 32.9476 26.4943 32.2251Z" fill="#D6CD56"/>
<path d="M21.9352 61.6074C22.9402 60.7519 23.1146 59.4064 23.0565 57.928C23.1063 56.0593 22.7491 55.4198 19.7758 57.1806C16.8357 59.1905 17.3672 61.516 18.1396 61.9147C19.4934 62.8283 21.1047 62.33 21.9352 61.6074Z" fill="#D6CD56"/>
<path d="M29.7262 51.5488C30.7312 50.6933 30.9056 49.3478 30.8475 47.8695C30.8973 46.0007 30.5402 45.3612 27.5668 47.122C24.6267 49.1319 25.1582 51.4657 25.9306 51.8561C27.2844 52.7697 28.8957 52.2714 29.7262 51.5488Z" fill="#D6CD56"/>
<path d="M18.9957 51.9477C20.0007 51.0922 20.1751 49.7468 20.117 48.2601C20.1668 46.3913 19.8097 45.7518 16.8363 47.5126C13.8962 49.5225 14.4277 51.8563 15.2002 52.2467C16.5539 53.1686 18.1652 52.6703 18.9957 51.9477Z" fill="#D6CD56"/>
<path d="M28.7458 41.2519C29.7507 40.3964 29.9251 39.051 29.867 37.5726C29.9168 35.7038 29.5597 35.0643 26.5863 36.8251C23.6462 38.835 24.1777 41.1605 24.9502 41.5592C26.3123 42.4811 27.9235 41.9828 28.7458 41.2519Z" fill="#D6CD56"/>
<path d="M40.2419 42.2719C41.2468 41.4165 41.4212 40.071 41.3631 38.5843C41.4129 36.7156 41.0558 36.0761 38.0824 37.8368C35.1423 39.8467 35.6738 42.1806 36.4463 42.5709C37.8 43.4928 39.4113 42.9945 40.2419 42.2719Z" fill="#D6CD56"/>
<path d="M32.8571 62.4391C33.8621 61.5836 34.0365 60.2381 33.9783 58.7597C34.0282 56.891 33.671 56.2432 30.6977 58.0123C27.7575 60.0222 28.2891 62.3477 29.0615 62.7464C30.4153 63.66 32.0265 63.1616 32.8571 62.4391Z" fill="#D6CD56"/>
<path d="M41.0797 54.9238C42.0847 54.0683 42.2591 52.7228 42.201 51.2445C42.2508 49.3757 41.8937 48.7362 38.9203 50.497C35.9802 52.5069 36.5117 54.8324 37.2841 55.2311C38.6379 56.153 40.2492 55.6547 41.0797 54.9238Z" fill="#D6CD56"/>
<path d="M38.9782 32.3144C39.9831 31.4589 40.1575 30.1135 40.0994 28.6351C40.1492 26.7664 39.7921 26.1268 36.8188 27.8876C33.8786 29.8975 34.4102 32.2231 35.1826 32.6217C36.5364 33.5436 38.1476 33.0453 38.9782 32.3144Z" fill="#D6CD56"/>
<path d="M46.7692 22.2563C47.7742 21.4008 47.9486 20.0554 47.8904 18.5687C47.9403 16.6999 47.5831 16.0604 44.6098 17.8212C41.6696 19.8311 42.2012 22.1649 42.9736 22.5553C44.3274 23.4772 45.9387 22.9789 46.7692 22.2563Z" fill="#D6CD56"/>
<path d="M36.0373 22.6547C37.0422 21.7993 37.2167 20.4538 37.1502 18.9671C37.2 17.0984 36.8429 16.4589 33.8695 18.2196C30.9294 20.2295 31.461 22.5634 32.2334 22.9537C33.5955 23.8757 35.2067 23.3773 36.0373 22.6547Z" fill="#D6CD56"/>
<path d="M45.7951 11.9667C46.8001 11.1113 46.9662 9.7658 46.908 8.28743C46.9579 6.4187 46.6007 5.77917 43.6274 7.53993C40.6872 9.54985 41.2188 11.8754 41.9912 12.2741C43.3533 13.1877 44.9645 12.6893 45.7951 11.9667Z" fill="#D6CD56"/>
<path d="M57.2829 12.9785C58.2878 12.123 58.4623 10.7775 58.4041 9.29915C58.4539 7.43042 58.0968 6.79089 55.1234 8.55165C52.1833 10.5616 52.7149 12.8871 53.4873 13.2858C54.8411 14.2077 56.4606 13.7093 57.2829 12.9785Z" fill="#D6CD56"/>
<path d="M49.8986 33.1469C50.9036 32.2915 51.078 30.946 51.0115 29.4593C51.0614 27.5906 50.7042 26.9511 47.7309 28.7118C44.7907 30.7217 45.3223 33.0556 46.0947 33.4459C47.4568 34.3678 49.0681 33.8695 49.8986 33.1469Z" fill="#D6CD56"/>
<path d="M58.1208 25.6386C59.1257 24.7832 59.3001 23.4377 59.242 21.9593C59.2918 20.0906 58.9347 19.4511 55.9613 21.2118C53.0212 23.2217 53.5527 25.5473 54.3252 25.9459C55.6789 26.8595 57.2902 26.3612 58.1208 25.6386Z" fill="#D6CD56"/>
<path d="M54.736 55.3886C55.7409 54.5332 55.9154 53.1877 55.8572 51.7093C55.907 49.8406 55.5499 49.201 52.5766 50.9618C49.6364 52.9717 50.168 55.2973 50.9404 55.6959C52.2942 56.6095 53.9054 56.1112 54.736 55.3886Z" fill="#D6CD56"/>
<path d="M62.5251 45.3188C63.53 44.4633 63.7044 43.1179 63.6463 41.6312C63.6961 39.7624 63.339 39.1229 60.3656 40.8837C57.4255 42.8936 57.957 45.2274 58.7295 45.6178C60.0832 46.5397 61.6945 46.0414 62.5251 45.3188Z" fill="#D6CD56"/>
<path d="M51.7931 45.7172C52.7981 44.8618 52.9642 43.5163 52.9061 42.0296C52.9559 40.1609 52.5988 39.5214 49.6254 41.2821C46.6853 43.292 47.2168 45.6259 47.9892 46.0162C49.3513 46.9381 50.9709 46.4398 51.7931 45.7172Z" fill="#D6CD56"/>
<path d="M61.5529 35.0293C62.5579 34.1738 62.724 32.8283 62.6658 31.3499C62.7157 29.4812 62.3585 28.8417 59.3852 30.6024C56.445 32.6124 56.9766 34.9379 57.749 35.3365C59.1111 36.2502 60.7224 35.7518 61.5529 35.0293Z" fill="#D6CD56"/>
<path d="M31.7712 8.98628C32.7761 8.13081 32.9422 6.78534 32.8924 5.30696C32.9422 3.43823 32.5851 2.7987 29.6117 4.55946C26.6716 6.56939 27.2031 8.90322 27.9755 9.29358C29.3376 10.2072 30.9489 9.70885 31.7712 8.98628Z" fill="#D6CD56"/>
<path d="M46.0133 66.3496C47.0183 65.4941 47.1844 64.1486 47.1346 62.6702C47.1844 60.8015 46.8273 60.162 43.8539 61.9227C40.9138 63.9327 41.4453 66.2582 42.2177 66.6569C43.5798 67.5705 45.1828 67.0721 46.0133 66.3496Z" fill="#D6CD56"/>
<path d="M68.529 22.6308C69.5339 21.7753 69.7083 20.4299 69.6502 18.9515C69.7 17.0828 69.3429 16.4432 66.3695 18.204C63.4294 20.2139 63.961 22.5394 64.7334 22.9381C66.0872 23.8517 67.6984 23.3534 68.529 22.6308Z" fill="#D6CD56"/>
<path d="M19.9508 5.47115C20.9558 4.61569 21.1302 3.2702 21.0721 1.78352C21.1219 -0.0852096 20.7648 -0.724732 17.7914 1.03603C14.8513 3.04595 15.3828 5.37148 16.1552 5.77015C17.509 6.69205 19.1203 6.19373 19.9508 5.47115Z" fill="#D6CD56"/>
<path d="M8.19886 53.9321C9.20382 53.0766 9.37824 51.7311 9.3201 50.2445C9.36994 48.3757 9.01282 47.7362 6.03946 49.497C3.09932 51.5069 3.63087 53.8407 4.40328 54.2311C5.75707 55.1613 7.36831 54.663 8.19886 53.9321Z" fill="#D6CD56"/>
<path d="M78.8707 25.3891C79.8757 24.5337 80.0501 23.1882 79.992 21.7015C80.0418 19.8328 79.6847 19.1932 76.7113 20.954C73.7712 22.9639 74.3027 25.2978 75.0752 25.6881C76.4373 26.6183 78.0485 26.12 78.8707 25.3891Z" fill="#D6CD56"/>
<path d="M73.0387 36.0532C74.0437 35.1977 74.2181 33.8522 74.16 32.3655C74.2098 30.4968 73.8527 29.8573 70.8793 31.6181C67.9392 33.628 68.4707 35.9618 69.2431 36.3522C70.5969 37.2741 72.2165 36.7758 73.0387 36.0532Z" fill="#D6CD56"/>
<path d="M65.6545 56.2094C66.6594 55.354 66.8255 54.0085 66.7674 52.5218C66.8172 50.6531 66.4601 50.0136 63.4867 51.7743C60.5466 53.7842 61.0781 56.1181 61.8505 56.5084C63.2126 57.4303 64.8239 56.932 65.6545 56.2094Z" fill="#D6CD56"/>
<path d="M73.8786 48.7011C74.8835 47.8457 75.058 46.5002 74.9998 45.0218C75.0496 43.1531 74.6925 42.5136 71.7191 44.2743C68.779 46.2842 69.3106 48.6098 70.083 49.0084C71.4368 49.922 73.0563 49.4237 73.8786 48.7011Z" fill="#D6CD56"/>
</g>
</svg>
