<svg width="209" height="166" viewBox="0 0 209 166" fill="none" xmlns="http://www.w3.org/2000/svg">
<path d="M194.014 1C202.156 19.3464 207.126 44.758 191.477 69.894C161.928 117.353 84.5909 76.7356 44.8723 81.9187C10.7737 86.3689 38.3375 135.565 1 165.385" stroke="#D6CD56" stroke-width="0.75" stroke-miterlimit="10" stroke-linecap="round" stroke-linejoin="round"/>
<path d="M51.207 15.0989C51.207 15.0989 56.177 44.5343 103.689 56.9282" stroke="#D6CD56" stroke-width="0.75" stroke-miterlimit="10" stroke-linecap="round" stroke-linejoin="round"/>
<path d="M80.9531 48.3346C80.9531 48.3346 89.7026 52.5664 101.02 47.1337" stroke="#D6CD56" stroke-width="0.75" stroke-miterlimit="10" stroke-linecap="round" stroke-linejoin="round"/>
<path d="M103.824 56.7147C103.809 56.7147 106.169 51.282 116.39 53.8034C126.429 56.3924 130.083 64.4504 130.208 64.414C130.218 64.3829 123.793 66.7223 115.589 65.7917C107.474 64.8403 103.928 56.7095 103.824 56.7147Z" stroke="#D6CD56" stroke-width="0.75" stroke-miterlimit="10" stroke-linecap="round" stroke-linejoin="round"/>
<path d="M103.824 56.7144C103.803 56.6988 109.371 56.1633 116.93 58.9551C124.443 61.752 130.187 64.419 130.208 64.4086" stroke="#D6CD56" stroke-width="0.75" stroke-miterlimit="10" stroke-linecap="round" stroke-linejoin="round"/>
<path d="M81.4842 53.3407C81.4634 53.2367 86.7609 52.774 90.4884 61.3416C94.19 69.54 90.4468 76.7299 90.4416 76.8859C90.4312 76.9327 85.3884 73.9642 81.7181 67.1434C78.0166 60.3642 81.4582 53.3095 81.4842 53.3407Z" stroke="#D6CD56" stroke-width="0.75" stroke-miterlimit="10" stroke-linecap="round" stroke-linejoin="round"/>
<path d="M81.4844 53.3398C81.4896 53.3138 85.0143 57.348 87.177 64.3872C89.3501 71.4159 90.4366 76.8694 90.4418 76.8798" stroke="#D6CD56" stroke-width="0.75" stroke-miterlimit="10" stroke-linecap="round" stroke-linejoin="round"/>
<path d="M59.0114 52.338C59.0478 52.4368 63.7423 55.9043 60.124 65.0853C56.5992 74.5679 47.8497 78.1914 47.8289 78.0563C47.8289 78.0666 46.6644 71.0275 48.7179 62.6471C50.7402 54.1575 58.9958 52.2392 59.0114 52.338Z" stroke="#D6CD56" stroke-width="0.75" stroke-miterlimit="10" stroke-linecap="round" stroke-linejoin="round"/>
<path d="M59.0107 52.3388C59.0159 52.3804 58.7403 57.6831 55.1064 64.9562C51.4933 72.2969 47.8437 78.0883 47.8281 78.0571" stroke="#D6CD56" stroke-width="0.75" stroke-miterlimit="10" stroke-linecap="round" stroke-linejoin="round"/>
<path d="M101.56 47.1499C101.612 47.1706 100.541 42.0395 108.235 38.078C116.127 34.2101 123.358 37.9792 123.28 37.9117C123.233 37.9065 119.906 42.5541 114.005 46.4688C108.006 50.4147 101.528 47.1758 101.56 47.1499Z" stroke="#D6CD56" stroke-width="0.75" stroke-miterlimit="10" stroke-linecap="round" stroke-linejoin="round"/>
<path d="M101.559 47.1502C101.585 47.1606 104.922 43.5942 111.327 41.2392C117.753 38.879 123.284 37.912 123.279 37.912" stroke="#D6CD56" stroke-width="0.75" stroke-miterlimit="10" stroke-linecap="round" stroke-linejoin="round"/>
<path d="M80.5543 37.9997C80.5907 38.0153 79.7953 34.1994 85.5191 31.2517C91.3885 28.3768 96.7641 31.179 96.7069 31.127C96.6757 31.1218 94.1959 34.5841 89.8133 37.4955C85.3528 40.4328 80.5335 38.0205 80.5543 37.9997Z" stroke="#D6CD56" stroke-width="0.75" stroke-miterlimit="10" stroke-linecap="round" stroke-linejoin="round"/>
<path d="M80.5547 37.9994C80.5703 38.0046 83.0553 35.3584 87.8226 33.6013C92.6002 31.8493 96.7124 31.1266 96.7124 31.1266" stroke="#D6CD56" stroke-width="0.75" stroke-miterlimit="10" stroke-linecap="round" stroke-linejoin="round"/>
<path d="M75.3086 45.0746C75.3086 45.0746 77.8092 45.5217 81.7967 53.7878" stroke="#D6CD56" stroke-width="0.75" stroke-miterlimit="10" stroke-linecap="round" stroke-linejoin="round"/>
<path d="M61.3277 33.3677C61.3277 33.3677 63.1941 41.4882 58.9883 51.8753" stroke="#D6CD56" stroke-width="0.75" stroke-miterlimit="10" stroke-linecap="round" stroke-linejoin="round"/>
<path d="M65.1836 37.3081C65.1836 37.3081 72.8154 41.1864 80.1664 37.9891" stroke="#D6CD56" stroke-width="0.75" stroke-miterlimit="10" stroke-linecap="round" stroke-linejoin="round"/>
<g opacity="0.5">
<path d="M162.892 66.64C163.521 66.1045 163.63 65.2623 163.594 64.3369C163.625 63.1672 163.402 62.7669 161.54 63.869C159.7 65.1271 160.033 66.5828 160.516 66.8323C161.364 67.4094 162.372 67.0974 162.892 66.64Z" fill="#D6CD56"/>
<path d="M167.767 60.3447C168.396 59.8092 168.505 58.967 168.469 58.0416C168.5 56.8719 168.277 56.4716 166.415 57.5737C164.575 58.8266 164.908 60.2875 165.391 60.537C166.239 61.1089 167.247 60.797 167.767 60.3447Z" fill="#D6CD56"/>
<path d="M161.05 60.5941C161.679 60.0586 161.783 59.2164 161.746 58.2911C161.777 57.1213 161.554 56.721 159.693 57.8232C157.852 59.0813 158.185 60.5369 158.669 60.7865C159.521 61.3583 160.53 61.0464 161.05 60.5941Z" fill="#D6CD56"/>
<path d="M167.158 53.9035C167.787 53.368 167.896 52.5258 167.86 51.6005C167.891 50.4307 167.667 50.0304 165.806 51.1326C163.966 52.3907 164.298 53.8463 164.782 54.0959C165.629 54.6677 166.638 54.3558 167.158 53.9035Z" fill="#D6CD56"/>
<path d="M174.35 54.5377C174.98 54.0022 175.083 53.16 175.047 52.2346C175.078 51.0649 174.855 50.6646 172.994 51.7667C171.153 53.0248 171.486 54.4805 171.969 54.73C172.827 55.3019 173.836 54.9952 174.35 54.5377Z" fill="#D6CD56"/>
<path d="M169.726 67.16C170.355 66.6245 170.459 65.7823 170.428 64.8569C170.459 63.6872 170.235 63.2869 168.374 64.389C166.529 65.6471 166.866 67.1028 167.35 67.3523C168.197 67.9242 169.206 67.6123 169.726 67.16Z" fill="#D6CD56"/>
<path d="M174.874 62.4607C175.503 61.9252 175.607 61.083 175.571 60.1525C175.602 58.9827 175.378 58.5824 173.517 59.6846C171.677 60.9427 172.009 62.4035 172.493 62.6479C173.345 63.2249 174.354 62.913 174.874 62.4607Z" fill="#D6CD56"/>
<path d="M172.017 80.8527C172.646 80.3173 172.755 79.4751 172.719 78.5497C172.75 77.3799 172.527 76.9796 170.665 78.0818C168.825 79.3399 169.158 80.7955 169.641 81.0451C170.489 81.6169 171.497 81.305 172.017 80.8527Z" fill="#D6CD56"/>
<path d="M176.892 74.5575C177.521 74.022 177.63 73.1798 177.594 72.2544C177.625 71.0847 177.402 70.6844 175.54 71.7866C173.7 73.0447 174.033 74.5055 174.516 74.7498C175.364 75.3217 176.372 75.0098 176.892 74.5575Z" fill="#D6CD56"/>
<path d="M170.177 74.8068C170.806 74.2714 170.916 73.4292 170.879 72.4986C170.91 71.3289 170.687 70.9286 168.826 72.0307C166.985 73.2888 167.318 74.7496 167.801 74.994C168.649 75.5711 169.657 75.2591 170.177 74.8068Z" fill="#D6CD56"/>
<path d="M176.279 68.111C176.908 67.5756 177.017 66.7334 176.981 65.808C177.012 64.6383 176.788 64.2379 174.927 65.3401C173.087 66.5982 173.42 68.0538 173.903 68.3034C174.756 68.8804 175.764 68.5685 176.279 68.111Z" fill="#D6CD56"/>
<path d="M183.478 68.7504C184.107 68.2149 184.216 67.3727 184.18 66.4421C184.211 65.2724 183.988 64.8721 182.126 65.9742C180.286 67.2323 180.619 68.6932 181.102 68.9375C181.95 69.5146 182.958 69.2027 183.478 68.7504Z" fill="#D6CD56"/>
<path d="M178.853 81.3724C179.482 80.8369 179.591 79.9947 179.555 79.0694C179.586 77.8996 179.363 77.4941 177.501 78.6015C175.661 79.8596 175.994 81.3152 176.477 81.5648C177.325 82.1366 178.333 81.8247 178.853 81.3724Z" fill="#D6CD56"/>
<path d="M184.001 76.6683C184.631 76.1328 184.74 75.2906 184.703 74.3652C184.735 73.1955 184.511 72.7952 182.65 73.8973C180.809 75.1554 181.142 76.6111 181.626 76.8606C182.473 77.4377 183.482 77.1258 184.001 76.6683Z" fill="#D6CD56"/>
<path d="M182.689 62.5162C183.318 61.9807 183.427 61.1385 183.391 60.2131C183.422 59.0434 183.198 58.6431 181.337 59.7452C179.497 61.0033 179.83 62.459 180.313 62.7085C181.161 63.2856 182.169 62.9737 182.689 62.5162Z" fill="#D6CD56"/>
<path d="M187.564 56.2208C188.193 55.6853 188.302 54.8431 188.266 53.9125C188.297 52.7428 188.073 52.3425 186.212 53.4446C184.372 54.7027 184.705 56.1636 185.188 56.4079C186.036 56.985 187.044 56.6731 187.564 56.2208Z" fill="#D6CD56"/>
<path d="M180.847 56.4702C181.476 55.9348 181.585 55.0926 181.543 54.162C181.574 52.9923 181.351 52.592 179.49 53.6941C177.649 54.9522 177.982 56.413 178.466 56.6574C179.318 57.2345 180.327 56.9225 180.847 56.4702Z" fill="#D6CD56"/>
<path d="M186.956 49.7797C187.585 49.2443 187.689 48.4021 187.653 47.4767C187.684 46.307 187.46 45.9066 185.599 47.0088C183.759 48.2669 184.091 49.7225 184.575 49.9721C185.427 50.5439 186.436 50.232 186.956 49.7797Z" fill="#D6CD56"/>
<path d="M194.146 50.4139C194.775 49.8784 194.884 49.0362 194.848 48.1108C194.879 46.9411 194.656 46.5408 192.794 47.6429C190.954 48.901 191.287 50.3567 191.77 50.6062C192.618 51.1833 193.631 50.8714 194.146 50.4139Z" fill="#D6CD56"/>
<path d="M189.522 63.0361C190.151 62.5007 190.261 61.6585 190.219 60.7279C190.25 59.5582 190.027 59.1579 188.165 60.26C186.325 61.5181 186.658 62.979 187.141 63.2233C187.994 63.8004 189.002 63.4884 189.522 63.0361Z" fill="#D6CD56"/>
<path d="M194.669 58.337C195.299 57.8016 195.408 56.9594 195.371 56.034C195.403 54.8643 195.179 54.464 193.318 55.5661C191.477 56.8242 191.81 58.2799 192.294 58.5294C193.141 59.1013 194.15 58.7893 194.669 58.337Z" fill="#D6CD56"/>
<path d="M192.548 76.9587C193.177 76.4232 193.287 75.581 193.25 74.6556C193.281 73.4859 193.058 73.0856 191.197 74.1877C189.356 75.4458 189.689 76.9015 190.173 77.151C191.02 77.7229 192.028 77.411 192.548 76.9587Z" fill="#D6CD56"/>
<path d="M197.427 70.658C198.056 70.1226 198.166 69.2804 198.129 68.3498C198.16 67.1801 197.937 66.7798 196.076 67.8819C194.235 69.14 194.568 70.6008 195.051 70.8452C195.899 71.4223 196.907 71.1103 197.427 70.658Z" fill="#D6CD56"/>
<path d="M190.706 70.9075C191.335 70.372 191.439 69.5298 191.403 68.5992C191.434 67.4295 191.21 67.0292 189.349 68.1313C187.509 69.3894 187.841 70.8503 188.325 71.0946C189.177 71.6717 190.191 71.3598 190.706 70.9075Z" fill="#D6CD56"/>
<path d="M196.815 64.217C197.444 63.6815 197.548 62.8393 197.512 61.9139C197.543 60.7442 197.32 60.3439 195.458 61.446C193.618 62.7041 193.951 64.1598 194.434 64.4093C195.287 64.9812 196.295 64.6693 196.815 64.217Z" fill="#D6CD56"/>
<path d="M178.173 47.913C178.802 47.3776 178.906 46.5354 178.875 45.61C178.906 44.4403 178.683 44.0399 176.822 45.1421C174.981 46.4002 175.314 47.861 175.798 48.1054C176.65 48.6772 177.659 48.3653 178.173 47.913Z" fill="#D6CD56"/>
<path d="M187.091 83.8218C187.72 83.2863 187.824 82.4441 187.793 81.5187C187.824 80.349 187.601 79.9487 185.74 81.0508C183.899 82.3089 184.232 83.7646 184.716 84.0141C185.568 84.586 186.571 84.2741 187.091 83.8218Z" fill="#D6CD56"/>
<path d="M201.181 56.4557C201.81 55.9202 201.919 55.078 201.883 54.1526C201.914 52.9829 201.691 52.5826 199.83 53.6848C197.989 54.9429 198.322 56.3985 198.805 56.648C199.653 57.2199 200.661 56.908 201.181 56.4557Z" fill="#D6CD56"/>
<path d="M170.775 45.7146C171.404 45.1791 171.513 44.3369 171.477 43.4063C171.508 42.2366 171.284 41.8363 169.423 42.9384C167.583 44.1965 167.916 45.6522 168.399 45.9017C169.247 46.4788 170.255 46.1668 170.775 45.7146Z" fill="#D6CD56"/>
<path d="M163.419 76.0498C164.049 75.5143 164.158 74.6721 164.121 73.7416C164.152 72.5718 163.929 72.1715 162.068 73.2737C160.227 74.5318 160.56 75.9926 161.044 76.237C161.891 76.8192 162.9 76.5073 163.419 76.0498Z" fill="#D6CD56"/>
<path d="M207.654 58.1817C208.283 57.6462 208.392 56.804 208.356 55.8734C208.387 54.7037 208.163 54.3034 206.302 55.4055C204.462 56.6636 204.795 58.1245 205.278 58.3688C206.131 58.9511 207.139 58.6391 207.654 58.1817Z" fill="#D6CD56"/>
<path d="M204.005 64.8563C204.634 64.3209 204.744 63.4787 204.707 62.5481C204.738 61.3784 204.515 60.9781 202.654 62.0802C200.813 63.3383 201.146 64.7991 201.63 65.0435C202.477 65.6206 203.491 65.3086 204.005 64.8563Z" fill="#D6CD56"/>
<path d="M199.386 77.4733C200.015 76.9379 200.119 76.0957 200.082 75.1651C200.113 73.9954 199.89 73.5951 198.029 74.6972C196.188 75.9553 196.521 77.4162 197.005 77.6605C197.857 78.2376 198.866 77.9256 199.386 77.4733Z" fill="#D6CD56"/>
<path d="M204.533 72.7742C205.162 72.2388 205.271 71.3966 205.235 70.4712C205.266 69.3015 205.042 68.9012 203.181 70.0033C201.341 71.2614 201.673 72.717 202.157 72.9666C203.004 73.5385 204.018 73.2265 204.533 72.7742Z" fill="#D6CD56"/>
</g>
</svg>
