<svg width="254" height="270" viewBox="0 0 254 270" fill="none" xmlns="http://www.w3.org/2000/svg">
<path d="M108.826 221.353C108.826 221.353 120.305 185.807 148.808 182.598C160.307 181.308 172.289 177.723 181.237 172.875" stroke="#D6CD56" stroke-width="0.75" stroke-miterlimit="10" stroke-linecap="round" stroke-linejoin="round"/>
<path d="M180.823 172.987C180.846 172.962 181.616 174.066 185.047 162.992C188.606 151.803 186.989 151.166 198.125 143.992C209.37 136.787 214.849 124.098 219.327 124.216C219.332 124.192 217.414 131.166 213.148 143.866C208.803 156.567 199.284 161.873 192.931 166.074C186.533 170.285 180.83 172.983 180.823 172.987Z" stroke="#D6CD56" stroke-width="0.75" stroke-miterlimit="10" stroke-linecap="round" stroke-linejoin="round"/>
<path d="M180.824 172.987C180.852 172.968 185.962 167.327 194.407 158.135C202.989 148.844 203.194 149.692 208.534 141.587C213.949 133.442 219.329 124.215 219.336 124.21" stroke="#D6CD56" stroke-width="0.75" stroke-miterlimit="10" stroke-linecap="round" stroke-linejoin="round"/>
<path d="M163.798 173.612C163.779 173.614 164.901 174.223 164.778 162.279C164.603 150.319 162.789 150.289 170.549 139.674C178.457 129.023 178.716 116.351 182.966 114.956C182.947 114.958 183.975 121.418 184.571 133.972C185.034 146.554 177.576 155.306 172.972 161.882C168.267 168.474 163.798 173.612 163.798 173.612Z" stroke="#D6CD56" stroke-width="0.75" stroke-miterlimit="10" stroke-linecap="round" stroke-linejoin="round"/>
<path d="M163.798 173.611C163.805 173.606 166.983 165.791 171.862 153.975C176.778 142.123 177.254 142.874 179.373 133.73C181.525 124.574 182.978 114.957 182.966 114.955" stroke="#D6CD56" stroke-width="0.75" stroke-miterlimit="10" stroke-linecap="round" stroke-linejoin="round"/>
<path d="M173.41 189.212C173.445 189.189 173.468 190.36 183.524 187.285C193.558 184.204 193.781 182.161 204.979 187.377C215.573 192.939 225.464 190.642 226.462 194.922C226.498 194.898 221.005 197.376 211.487 200.654C202.266 203.767 194.787 197.902 187.51 194.987C180.537 191.901 173.417 189.207 173.41 189.212Z" stroke="#D6CD56" stroke-width="0.6512" stroke-miterlimit="10" stroke-linecap="round" stroke-linejoin="round"/>
<path d="M173.409 189.212C173.367 189.24 182.095 190.022 193.369 192.065C204.469 194.212 203.667 194.964 211.3 195.13C218.819 195.371 226.448 194.931 226.462 194.922" stroke="#D6CD56" stroke-width="0.6512" stroke-miterlimit="10" stroke-linecap="round" stroke-linejoin="round"/>
<path d="M122.336 197.306C122.298 197.31 123.5 197.795 122.494 185.896C121.397 173.997 119.582 174.089 126.361 162.864C133.282 151.607 132.279 139.128 136.364 137.437C136.334 137.437 138.052 143.715 139.824 156.021C141.461 168.355 134.698 177.683 130.617 184.684C126.426 191.687 122.336 197.306 122.336 197.306Z" stroke="#D6CD56" stroke-width="0.75" stroke-miterlimit="10" stroke-linecap="round" stroke-linejoin="round"/>
<path d="M122.336 197.306C122.343 197.301 124.974 189.147 128.875 176.941C132.791 164.726 133.316 165.445 134.602 156.221C135.907 146.995 136.364 137.437 136.36 137.43" stroke="#D6CD56" stroke-width="0.75" stroke-miterlimit="10" stroke-linecap="round" stroke-linejoin="round"/>
<path d="M149.906 182.462C149.906 182.462 160.536 178.349 163.975 172.958" stroke="#D6CD56" stroke-width="0.75" stroke-miterlimit="10" stroke-linecap="round" stroke-linejoin="round"/>
<path d="M140.06 184.719C140.06 184.719 157.378 182.815 174.535 189.564" stroke="#D6CD56" stroke-width="0.75" stroke-miterlimit="10" stroke-linecap="round" stroke-linejoin="round"/>
<path d="M1.33886 18.6729C25.1014 8.12825 58.0148 1.69102 90.5713 21.9589C152.042 60.2322 99.4326 160.4 106.146 211.844C111.91 256.009 175.629 220.308 214.252 268.668" stroke="#D6CD56" stroke-width="0.75" stroke-miterlimit="10" stroke-linecap="round" stroke-linejoin="round"/>
<path d="M1.62207 213.809C1.62207 213.809 47.7011 206.028 67.1029 131.652" stroke="#D6CD56" stroke-width="0.75" stroke-miterlimit="10" stroke-linecap="round" stroke-linejoin="round"/>
<path d="M53.6495 167.242C53.6495 167.242 60.2741 153.545 51.7695 135.828" stroke="#D6CD56" stroke-width="0.75" stroke-miterlimit="10" stroke-linecap="round" stroke-linejoin="round"/>
<path d="M66.7693 131.441C66.7693 131.466 58.2648 127.771 62.2119 111.771C66.2648 96.0559 78.8791 90.3347 78.8222 90.1394C78.7733 90.1231 82.4356 100.182 80.9788 113.024C79.4895 125.728 66.7612 131.279 66.7693 131.441Z" stroke="#D6CD56" stroke-width="0.75" stroke-miterlimit="10" stroke-linecap="round" stroke-linejoin="round"/>
<path d="M66.7714 131.441C66.747 131.474 65.9088 122.758 70.279 110.925C74.6574 99.1648 78.8324 90.172 78.8161 90.1394" stroke="#D6CD56" stroke-width="0.75" stroke-miterlimit="10" stroke-linecap="round" stroke-linejoin="round"/>
<path d="M61.4846 166.413C61.3219 166.446 60.5976 158.153 74.0095 152.318C86.8436 146.523 98.0989 152.383 98.343 152.391C98.4163 152.407 93.7693 160.301 83.0918 166.047C72.4795 171.841 61.4358 166.454 61.4846 166.413Z" stroke="#D6CD56" stroke-width="0.75" stroke-miterlimit="10" stroke-linecap="round" stroke-linejoin="round"/>
<path d="M61.4852 166.412C61.4445 166.404 67.7598 160.886 78.7791 157.501C89.7821 154.099 98.3191 152.398 98.3354 152.39" stroke="#D6CD56" stroke-width="0.75" stroke-miterlimit="10" stroke-linecap="round" stroke-linejoin="round"/>
<path d="M59.9167 201.593C60.0713 201.536 65.4996 194.187 79.8718 199.851C94.7161 205.369 100.389 219.066 100.177 219.098C100.193 219.098 89.1739 220.921 76.055 217.707C62.7651 214.541 59.7621 201.617 59.9167 201.593Z" stroke="#D6CD56" stroke-width="0.75" stroke-miterlimit="10" stroke-linecap="round" stroke-linejoin="round"/>
<path d="M59.9139 201.594C59.979 201.586 68.2801 202.017 79.6656 207.706C91.1569 213.362 100.223 219.075 100.174 219.1" stroke="#D6CD56" stroke-width="0.75" stroke-miterlimit="10" stroke-linecap="round" stroke-linejoin="round"/>
<path d="M51.7943 134.989C51.8268 134.908 43.7943 136.584 37.5929 124.539C31.538 112.186 37.4383 100.865 37.3325 100.987C37.3244 101.06 44.6 106.269 50.7282 115.506C56.9051 124.898 51.835 135.038 51.7943 134.989Z" stroke="#D6CD56" stroke-width="0.75" stroke-miterlimit="10" stroke-linecap="round" stroke-linejoin="round"/>
<path d="M51.794 134.99C51.8103 134.95 46.2274 129.725 42.5408 119.698C38.846 109.639 37.3323 100.98 37.3323 100.988" stroke="#D6CD56" stroke-width="0.75" stroke-miterlimit="10" stroke-linecap="round" stroke-linejoin="round"/>
<path d="M37.472 167.868C37.4964 167.811 31.5229 169.057 26.9085 160.096C22.408 150.908 26.7946 142.493 26.7132 142.583C26.705 142.632 32.1251 146.514 36.6826 153.374C41.2807 160.357 37.5046 167.901 37.472 167.868Z" stroke="#D6CD56" stroke-width="0.75" stroke-miterlimit="10" stroke-linecap="round" stroke-linejoin="round"/>
<path d="M37.4749 167.869C37.483 167.845 33.3406 163.955 30.5899 156.492C27.8473 149.013 26.7161 142.575 26.7161 142.575" stroke="#D6CD56" stroke-width="0.75" stroke-miterlimit="10" stroke-linecap="round" stroke-linejoin="round"/>
<path d="M48.5477 176.08C48.5477 176.08 49.2476 172.166 62.1875 165.923" stroke="#D6CD56" stroke-width="0.75" stroke-miterlimit="10" stroke-linecap="round" stroke-linejoin="round"/>
<path d="M30.2212 197.963C30.2212 197.963 42.9332 195.041 59.1936 201.625" stroke="#D6CD56" stroke-width="0.75" stroke-miterlimit="10" stroke-linecap="round" stroke-linejoin="round"/>
<path d="M36.3896 191.934C36.3896 191.934 42.4608 179.987 37.4558 168.479" stroke="#D6CD56" stroke-width="0.75" stroke-miterlimit="10" stroke-linecap="round" stroke-linejoin="round"/>
<g opacity="0.5">
<path d="M86.3572 58.9878C85.6637 58.173 84.5729 58.0316 83.3743 58.0788C81.8593 58.0384 81.3408 58.3279 82.7683 60.7385C84.3978 63.1222 86.2832 62.6912 86.6064 62.065C87.3538 60.9674 86.9498 59.6611 86.3572 58.9878Z" fill="#D6CD56"/>
<path d="M78.2051 52.6733C77.5116 51.8586 76.4208 51.7172 75.2222 51.7643C73.7072 51.7239 73.1887 52.0135 74.6162 54.4241C76.239 56.8077 78.1311 56.3768 78.4543 55.7506C79.195 54.653 78.791 53.3467 78.2051 52.6733Z" fill="#D6CD56"/>
<path d="M78.5283 61.3717C77.8347 60.5569 76.7439 60.4223 75.5453 60.4694C74.0303 60.429 73.5118 60.7185 74.9393 63.1291C76.5688 65.5128 78.4542 65.0818 78.7774 64.4556C79.5181 63.3513 79.1141 62.045 78.5283 61.3717Z" fill="#D6CD56"/>
<path d="M69.8608 53.4604C69.1672 52.6457 68.0764 52.5043 66.8778 52.5514C65.3628 52.511 64.8443 52.8006 66.2718 55.2112C67.9013 57.5948 69.7867 57.1639 70.1099 56.5377C70.8506 55.4401 70.4466 54.1338 69.8608 53.4604Z" fill="#D6CD56"/>
<path d="M70.6822 44.1471C69.9886 43.3323 68.8978 43.1976 67.6992 43.2448C66.1842 43.2044 65.6657 43.4939 67.0932 45.9045C68.7227 48.2882 70.6081 47.8572 70.9313 47.231C71.672 46.12 71.2747 44.8137 70.6822 44.1471Z" fill="#D6CD56"/>
<path d="M87.0307 50.1322C86.3372 49.3174 85.2463 49.1828 84.0478 49.2232C82.5327 49.1828 82.0142 49.4723 83.4417 51.8829C85.0713 54.2733 86.9566 53.8356 87.2798 53.2094C88.0205 52.1119 87.6165 50.8056 87.0307 50.1322Z" fill="#D6CD56"/>
<path d="M80.9442 43.4674C80.2506 42.6526 79.1598 42.518 77.9545 42.5651C76.4395 42.5247 75.921 42.8142 77.3485 45.2248C78.978 47.6085 80.8701 47.1776 81.1866 46.5513C81.934 45.447 81.53 44.1407 80.9442 43.4674Z" fill="#D6CD56"/>
<path d="M104.764 47.1616C104.07 46.3469 102.979 46.2055 101.781 46.2526C100.266 46.2122 99.7473 46.5017 101.175 48.9123C102.804 51.296 104.69 50.8651 105.013 50.2388C105.754 49.1413 105.35 47.835 104.764 47.1616Z" fill="#D6CD56"/>
<path d="M96.6083 40.8472C95.9148 40.0324 94.824 39.891 93.6254 39.9381C92.1104 39.8977 91.5919 40.1873 93.0194 42.5979C94.6489 44.9815 96.541 44.5506 96.8575 43.9244C97.5982 42.8268 97.1942 41.5205 96.6083 40.8472Z" fill="#D6CD56"/>
<path d="M96.9347 49.5464C96.2411 48.7316 95.1503 48.5902 93.945 48.6374C92.4299 48.597 91.9115 48.8865 93.339 51.2971C94.9685 53.6808 96.8606 53.2498 97.1771 52.6236C97.9245 51.526 97.5205 50.2198 96.9347 49.5464Z" fill="#D6CD56"/>
<path d="M88.2604 41.6421C87.5669 40.8273 86.4761 40.6859 85.2775 40.7331C83.7625 40.6927 83.244 40.9822 84.6715 43.3928C86.301 45.7765 88.1864 45.3455 88.5096 44.7193C89.257 43.615 88.853 42.3087 88.2604 41.6421Z" fill="#D6CD56"/>
<path d="M89.0886 32.3218C88.395 31.507 87.3042 31.3656 86.0989 31.4127C84.5839 31.3723 84.0654 31.6619 85.4929 34.0725C87.1224 36.4562 89.0145 36.0252 89.331 35.399C90.0784 34.3014 89.6744 32.9951 89.0886 32.3218Z" fill="#D6CD56"/>
<path d="M105.437 38.3081C104.743 37.4933 103.652 37.3519 102.454 37.3991C100.939 37.3587 100.414 37.6482 101.848 40.0588C103.477 42.4425 105.363 42.0115 105.686 41.3853C106.427 40.2878 106.023 38.9815 105.437 38.3081Z" fill="#D6CD56"/>
<path d="M99.3439 31.6421C98.6504 30.8274 97.5596 30.6859 96.361 30.7331C94.846 30.6927 94.3275 30.9822 95.755 33.3928C97.3845 35.7765 99.2699 35.3455 99.5931 34.7193C100.34 33.6217 99.9365 32.3155 99.3439 31.6421Z" fill="#D6CD56"/>
<path d="M81.0158 33.3472C80.3223 32.5324 79.2314 32.391 78.0329 32.4382C76.5178 32.3978 75.9993 32.6873 77.4269 35.0979C79.0564 37.4815 80.9418 37.0506 81.265 36.4244C82.0124 35.3268 81.6084 34.0205 81.0158 33.3472Z" fill="#D6CD56"/>
<path d="M72.8637 27.0327C72.1702 26.218 71.0794 26.0765 69.8741 26.1237C68.359 26.0833 67.8405 26.3728 69.268 28.7834C70.8976 31.1671 72.7897 30.7361 73.1061 30.1099C73.8536 29.0124 73.4496 27.7061 72.8637 27.0327Z" fill="#D6CD56"/>
<path d="M73.1867 35.731C72.4932 34.9163 71.4024 34.7749 70.1971 34.8288C68.682 34.7884 68.1635 35.0779 69.591 37.4885C71.2205 39.8722 73.1127 39.4412 73.4291 38.815C74.1766 37.7107 73.7726 36.4044 73.1867 35.731Z" fill="#D6CD56"/>
<path d="M64.5194 27.8189C63.8258 27.0042 62.735 26.8695 61.5364 26.9167C60.0214 26.8763 59.5029 27.1658 60.9304 29.5764C62.5599 31.9601 64.4453 31.5291 64.7685 30.9029C65.5092 29.7986 65.1052 28.4923 64.5194 27.8189Z" fill="#D6CD56"/>
<path d="M65.3408 18.5073C64.6472 17.6926 63.5564 17.5512 62.3578 17.5983C60.8428 17.5579 60.3243 17.8474 61.7518 20.258C63.3813 22.6417 65.2667 22.2108 65.5899 21.5845C66.3373 20.487 65.9333 19.1739 65.3408 18.5073Z" fill="#D6CD56"/>
<path d="M81.6893 24.4928C80.9957 23.678 79.9049 23.5366 78.6996 23.5905C77.1846 23.5501 76.6661 23.8396 78.0936 26.2502C79.7231 28.6339 81.6152 28.2029 81.9317 27.5767C82.6791 26.4724 82.2751 25.1661 81.6893 24.4928Z" fill="#D6CD56"/>
<path d="M75.6029 17.8257C74.9093 17.0109 73.8185 16.8695 72.6199 16.9167C71.1049 16.8763 70.5864 17.1658 72.0139 19.5764C73.6434 21.9601 75.5288 21.5291 75.852 20.9029C76.5927 19.8053 76.1887 18.499 75.6029 17.8257Z" fill="#D6CD56"/>
<path d="M99.7228 20.5718C99.0293 19.757 97.9385 19.6156 96.7399 19.6628C95.2249 19.6224 94.7064 19.9119 96.1339 22.3225C97.7634 24.7062 99.6488 24.2752 99.972 23.649C100.713 22.5514 100.309 21.2451 99.7228 20.5718Z" fill="#D6CD56"/>
<path d="M91.5639 14.2554C90.8704 13.4406 89.7795 13.2992 88.5743 13.3463C87.0592 13.3059 86.5407 13.5955 87.9682 16.0061C89.5977 18.3897 91.4899 17.9588 91.8063 17.3326C92.5538 16.235 92.1497 14.9287 91.5639 14.2554Z" fill="#D6CD56"/>
<path d="M91.8868 22.9557C91.1933 22.1409 90.1024 22.0062 88.8971 22.0534C87.3821 22.013 86.8636 22.3025 88.2911 24.7131C89.9206 27.0968 91.8127 26.6658 92.1292 26.0396C92.8766 24.9353 92.4726 23.6223 91.8868 22.9557Z" fill="#D6CD56"/>
<path d="M83.2196 15.0455C82.526 14.2307 81.4352 14.0961 80.2366 14.1432C78.7216 14.1028 78.2031 14.3924 79.6306 16.803C81.2601 19.1866 83.1455 18.7557 83.4687 18.1295C84.2094 17.0252 83.8054 15.7189 83.2196 15.0455Z" fill="#D6CD56"/>
<path d="M62.1041 39.1909C61.4105 38.3762 60.3197 38.2415 59.1211 38.2819C57.6061 38.2415 57.0876 38.531 58.5151 40.9416C60.1446 43.3253 62.0367 42.8943 62.3532 42.2681C63.0939 41.1638 62.6899 39.8575 62.1041 39.1909Z" fill="#D6CD56"/>
<path d="M108.61 27.6421C107.917 26.8274 106.826 26.6927 105.627 26.7331C104.112 26.6927 103.594 26.9822 105.021 29.3928C106.651 31.7765 108.536 31.3455 108.859 30.7193C109.6 29.615 109.196 28.3155 108.61 27.6421Z" fill="#D6CD56"/>
<path d="M73.1671 9.38818C72.4735 8.57342 71.3827 8.43202 70.1841 8.47915C68.6691 8.43875 68.1506 8.7283 69.5781 11.1389C71.2076 13.5226 73.093 13.0916 73.4162 12.4654C74.1569 11.3678 73.7529 10.0615 73.1671 9.38818Z" fill="#D6CD56"/>
<path d="M59.255 48.771C58.5614 47.9562 57.4706 47.8148 56.2653 47.862C54.7503 47.8216 54.2318 48.1111 55.6593 50.5217C57.2888 52.9054 59.1742 52.4744 59.4974 51.8482C60.2448 50.7506 59.8408 49.4443 59.255 48.771Z" fill="#D6CD56"/>
<path d="M98.544 58.3003C97.8505 57.4856 96.7597 57.3441 95.5544 57.3913C94.0393 57.3509 93.5208 57.6404 94.9483 60.051C96.5779 62.4347 98.47 62.0037 98.7864 61.3775C99.5406 60.2799 99.1366 58.9737 98.544 58.3003Z" fill="#D6CD56"/>
<path d="M75.4007 1.00539C74.7072 0.190633 73.6163 0.0492247 72.411 0.0963597C70.896 0.0559583 70.3775 0.345487 71.805 2.75608C73.4345 5.13975 75.3267 4.7088 75.6431 4.08259C76.3973 2.97829 75.9933 1.672 75.4007 1.00539Z" fill="#D6CD56"/>
<path d="M84.0477 5.73193C83.3541 4.91717 82.2633 4.77577 81.058 4.8229C79.543 4.7825 79.0245 5.07205 80.452 7.48265C82.0815 9.86631 83.9736 9.43536 84.2901 8.80915C85.0375 7.71159 84.6335 6.39855 84.0477 5.73193Z" fill="#D6CD56"/>
<path d="M100.389 11.7193C99.6958 10.9046 98.605 10.7699 97.3997 10.817C95.8846 10.7766 95.3662 11.0662 96.7937 13.4768C98.4232 15.8604 100.315 15.4295 100.632 14.8033C101.379 13.699 100.975 12.3927 100.389 11.7193Z" fill="#D6CD56"/>
<path d="M94.3032 5.05224C93.6096 4.23749 92.5188 4.09608 91.3202 4.14321C89.8052 4.10281 89.2867 4.39236 90.7142 6.80296C92.3437 9.18662 94.2291 8.75568 94.5523 8.12946C95.293 7.0319 94.889 5.71886 94.3032 5.05224Z" fill="#D6CD56"/>
</g>
</svg>
