<svg width="32" height="32" viewBox="0 0 32 32" fill="none" xmlns="http://www.w3.org/2000/svg">
<path d="M30.7027 9.76444H21.1378C22.0634 9.20906 22.9273 8.56112 23.5753 7.78975C24.6552 6.49387 25.1489 5.22883 25.0563 4.02551C24.9637 3.06902 24.5009 2.23595 23.6987 1.588C22.8348 0.909203 20.5515 -0.355831 17.7438 3.00731C17.065 3.80953 16.4787 4.88943 16.0468 5.96934C15.6148 4.85858 15.0286 3.80953 14.3498 3.00731C11.542 -0.355831 9.25879 0.909203 8.42572 1.588C7.6235 2.23595 7.16068 3.09987 7.06812 4.02551C6.9447 5.22883 7.46923 6.49387 8.54914 7.78975C9.19708 8.53026 10.061 9.20906 10.9866 9.76444H1.42175C0.989786 9.76444 0.650386 10.1038 0.650386 10.5358V17.2929C0.619532 17.7249 0.958931 18.0643 1.39089 18.0643H2.16226V30.8689C2.16226 31.3009 2.50166 31.6403 2.93362 31.6403H29.1599C29.5919 31.6403 29.9313 31.3009 29.9313 30.8689V18.0643H30.7027C31.1346 18.0643 31.474 17.7249 31.474 17.2929V10.5358C31.474 10.1038 31.1346 9.76444 30.7027 9.76444ZM18.9162 3.99465C20.027 2.66791 20.8909 2.32851 21.508 2.32851C22.0943 2.32851 22.4954 2.63705 22.6805 2.82218C23.1742 3.22329 23.421 3.68611 23.4827 4.21063C23.5444 4.982 23.1742 5.87678 22.3719 6.83327C20.8909 8.59197 17.8672 9.73359 16.849 9.7953H16.8181C16.7256 8.86966 17.3118 5.90763 18.9162 3.99465ZM9.72161 6.80241C8.91939 5.84592 8.51828 4.95114 8.61085 4.17978C8.67255 3.65525 8.91939 3.19244 9.41306 2.79133C9.81417 2.45193 11.0483 1.43373 13.2082 3.99465C14.8126 5.90763 15.3988 8.86966 15.3063 9.76444H15.2754C14.2264 9.70273 11.2026 8.56112 9.72161 6.80241ZM2.16226 11.3072H15.2754V16.5216H2.93362H2.16226V11.3072ZM3.70498 18.0643H15.2754V30.0976H3.70498V18.0643ZM28.3886 30.0976H16.8181V18.0643H28.3886V30.0976ZM29.9313 16.5216H29.1599H16.8181V11.3072H29.9313V16.5216Z" fill="white"/>
</svg>
