<svg width="32" height="32" viewBox="0 0 32 32" fill="none" xmlns="http://www.w3.org/2000/svg">
<path d="M16.0131 0.662354C15.9781 0.662354 15.9432 0.662354 15.9082 0.662354C15.3837 0.730919 14.9642 1.17659 14.9642 1.69084V3.7478C14.9642 4.33061 15.4187 4.77629 16.0131 4.77629C16.6075 4.77629 17.062 4.33061 17.062 3.7478V3.71352V1.65655C17.097 1.14231 16.6424 0.662354 16.0131 0.662354C16.0481 0.662354 16.0131 0.662354 16.0131 0.662354ZM6.46778 3.7478C5.90834 3.81637 5.48877 4.29633 5.52374 4.87913C5.5587 5.08483 5.62863 5.29053 5.76849 5.42766L8.91529 9.19876C9.26494 9.64444 9.92926 9.74729 10.3838 9.40446C10.8383 9.06163 10.9432 8.41026 10.5936 7.96458C10.5586 7.9303 10.5586 7.9303 10.5237 7.89602L7.37685 4.12491C7.16707 3.88493 6.81742 3.71352 6.46778 3.7478ZM25.4535 3.7478C25.1388 3.7478 24.8591 3.88493 24.6493 4.12491L21.5025 7.89602C21.1179 8.30741 21.1529 8.95878 21.5724 9.33589C21.992 9.713 22.6563 9.67872 23.041 9.26733C23.0759 9.23304 23.0759 9.23304 23.1109 9.19876L26.2577 5.42766C26.6423 4.98198 26.5724 4.33061 26.1178 3.98778C25.943 3.85065 25.6983 3.7478 25.4535 3.7478ZM15.9432 7.89602C15.5935 7.9303 15.3138 8.10171 15.139 8.37598L12.5866 12.4556L7.79643 13.4155C7.237 13.5184 6.85239 14.0669 6.95728 14.6154C6.99225 14.8211 7.09714 14.9925 7.237 15.1297L10.7334 18.558L10.1041 23.1861C10.0342 23.7347 10.4188 24.2832 11.0132 24.3517C11.188 24.386 11.3978 24.3517 11.5726 24.2832L16.0481 22.3976L20.5235 24.2489C21.048 24.4889 21.6773 24.2146 21.8871 23.7004C21.9571 23.529 21.992 23.3575 21.9571 23.1518L21.3277 18.5237L24.8241 15.0954C25.2437 14.684 25.2437 14.0326 24.8241 13.6555C24.6843 13.5184 24.4745 13.4155 24.2997 13.3813L19.4746 12.4556L16.9222 8.37598C16.7124 8.03315 16.3278 7.86173 15.9432 7.89602ZM16.0131 10.8786L17.9012 13.8955C18.041 14.1355 18.2858 14.3069 18.6005 14.3755L21.9221 15.0268L19.4746 17.4266C19.2298 17.6666 19.1249 17.9752 19.1949 18.2837L19.6494 21.6434L16.4327 20.3064C16.1529 20.2035 15.8732 20.2035 15.5935 20.3064L12.3768 21.6434L12.8313 18.2837C12.8663 17.9752 12.7614 17.6323 12.5516 17.4266L10.1041 15.0268L13.4257 14.3755C13.7054 14.3069 13.9502 14.1355 14.125 13.8955L16.0131 10.8786ZM1.67764 11.9757C1.64268 11.9757 1.60771 11.9757 1.57275 11.9757C0.97835 12.0099 0.558776 12.5242 0.628705 13.0727C0.663669 13.5527 1.04828 13.9641 1.53778 13.9983L3.63565 14.3412C4.19508 14.444 4.75452 14.0669 4.85941 13.4841C4.9643 12.9013 4.57969 12.3871 3.9853 12.2842L1.88743 11.9414C1.8175 12.0099 1.74757 11.9757 1.67764 11.9757ZM30.4185 11.9757C30.3835 11.9757 30.3136 11.9757 30.2786 11.9757C30.2436 11.9757 30.2436 11.9757 30.2087 11.9757L28.1108 12.3185C27.5514 12.4213 27.1668 12.9356 27.2367 13.5184C27.3066 14.1012 27.8661 14.444 28.4604 14.3755L30.5583 14.0326C31.1527 13.9641 31.5373 13.4498 31.4674 12.9013C31.3975 12.3871 30.9429 11.9757 30.4185 11.9757ZM7.20203 18.8322C7.06217 18.8322 6.95728 18.8665 6.85239 18.9351L2.307 20.992C1.74757 21.1977 1.50282 21.7805 1.67764 22.3291C1.85246 22.8776 2.48182 23.1176 3.04126 22.9461C3.07622 22.9119 3.14615 22.9119 3.18111 22.8776L7.7265 20.8206C8.25097 20.5806 8.49572 19.9978 8.28593 19.4836C8.11111 19.1065 7.76146 18.8665 7.34189 18.8665C7.27196 18.8322 7.237 18.8322 7.20203 18.8322ZM24.7192 18.8665C24.1249 18.9008 23.7053 19.3807 23.7402 19.9636C23.7752 20.3407 23.985 20.6835 24.3346 20.8206L28.88 22.8776C29.4045 23.1518 30.0339 22.9804 30.3136 22.4662C30.5933 21.952 30.4185 21.3349 29.894 21.0606C29.859 21.0263 29.7891 21.0263 29.7541 20.992L25.2088 18.9351C25.0339 18.8665 24.8941 18.8322 24.7192 18.8665ZM16.0131 24.6603C15.9781 24.6603 15.9432 24.6603 15.9082 24.6603C15.3837 24.7289 14.9642 25.1745 14.9642 25.6888V30.4884C14.9642 31.0712 15.4187 31.5168 16.0131 31.5168C16.6075 31.5168 17.062 31.0712 17.062 30.4884V30.4541V25.6545C17.097 25.1402 16.6424 24.6603 16.0131 24.6603C16.0481 24.6603 16.0131 24.6603 16.0131 24.6603ZM8.98522 25.3459C8.63558 25.3802 8.3209 25.5516 8.14607 25.8602L7.09714 27.5743C6.74749 28.02 6.85239 28.6714 7.30693 29.0142C7.76146 29.357 8.42579 29.2542 8.77543 28.8085C8.8104 28.7399 8.84536 28.7057 8.88033 28.6371L9.92926 26.923C10.2439 26.443 10.0691 25.7916 9.57962 25.5174C9.4048 25.3802 9.19501 25.3459 8.98522 25.3459ZM22.971 25.3459C22.3766 25.3802 21.9571 25.8602 21.992 26.443C21.992 26.6144 22.0619 26.7858 22.1319 26.923L23.1808 28.6371C23.4256 29.1513 24.0549 29.357 24.5794 29.117C25.1039 28.8771 25.3136 28.26 25.0689 27.7457C25.0339 27.6772 24.999 27.6086 24.964 27.5743L23.9151 25.8602C23.7053 25.5516 23.3556 25.3459 22.971 25.3459Z" fill="white"/>
</svg>
