<svg width="34" height="26" viewBox="0 0 34 26" fill="none" xmlns="http://www.w3.org/2000/svg">
<path d="M33.8806 12.034L33.6963 11.8443L28.0784 6.05483H23.4126V0.190796H16.997H7.11394H0.871094V17.412H1.30143V22.3056H3.79371C4.08707 24.2106 5.73324 25.6761 7.72004 25.6761C9.70684 25.6761 11.353 24.2106 11.6464 22.3056H22.3695H22.9756H23.2865C23.5793 24.2106 25.2255 25.6761 27.2123 25.6761C29.1991 25.6761 30.8446 24.2106 31.138 22.3056H33.8812V12.034H33.8806ZM32.6623 12.5183V14.1511H27.0541V10.2769H30.4876L32.6623 12.5183ZM15.7848 1.4036V6.05543H8.32614V1.4036H15.7848ZM2.0833 1.4036H7.11394V7.26763H16.997V1.4036H22.201V16.2004H2.0833V1.4036ZM2.51363 17.4126H21.764V21.094H11.6464C11.353 19.1884 9.70684 17.7229 7.72004 17.7229C5.73324 17.7229 4.08707 19.1884 3.79371 21.094H2.51363V17.4126ZM7.72004 24.4639C6.19509 24.4639 4.9544 23.2239 4.9544 21.6995C4.9544 20.1746 6.19509 18.9345 7.72004 18.9345C9.24499 18.9345 10.4857 20.1746 10.4857 21.6995C10.4851 23.2245 9.24439 24.4639 7.72004 24.4639ZM27.2123 24.4639C25.6873 24.4639 24.4472 23.2239 24.4472 21.6995C24.4472 20.1746 25.6873 18.9345 27.2123 18.9345C28.7372 18.9345 29.9773 20.1746 29.9773 21.6995C29.9767 23.2245 28.7366 24.4639 27.2123 24.4639ZM31.1374 21.094C30.8446 19.1884 29.1985 17.7229 27.2117 17.7229C25.2249 17.7229 23.5793 19.1884 23.2859 21.094H22.975V17.4126H23.4126V7.26703H27.5662L29.3112 9.06533H25.8413V15.3639H32.6684V21.094H31.1374Z" fill="white"/>
</svg>
