<svg width="34" height="29" viewBox="0 0 34 29" fill="none" xmlns="http://www.w3.org/2000/svg">
<mask id="path-1-inside-1_7049_2824" fill="white">
<path d="M33.3172 4.80043H25.9245C25.6423 2.49027 24.734 0.3125 23.2194 0.3125C22.2763 0.3125 21.5684 1.16184 21.0994 2.36012C20.8931 2.07365 20.6217 1.84032 20.3075 1.67939C19.9934 1.51845 19.6454 1.43452 19.2924 1.43452C18.9394 1.43452 18.5915 1.51845 18.2773 1.67939C17.9631 1.84032 17.6917 2.07365 17.4855 2.36012C17.0165 1.16184 16.3085 0.3125 15.3655 0.3125C13.8536 0.3125 12.9426 2.49027 12.6604 4.80043H5.26767C5.11888 4.80043 4.97619 4.85953 4.87099 4.96474C4.76578 5.06994 4.70668 5.21263 4.70668 5.36142V10.9713C4.70668 11.1201 4.76578 11.2628 4.87099 11.368C4.97619 11.4732 5.11888 11.5323 5.26767 11.5323H5.82866V14.8983H4.70668V14.3373C4.70668 14.1885 4.64757 14.0458 4.54237 13.9406C4.43716 13.8354 4.29447 13.7763 4.14568 13.7763H0.779741C0.630957 13.7763 0.488267 13.8354 0.38306 13.9406C0.277854 14.0458 0.21875 14.1885 0.21875 14.3373V26.6791C0.21875 26.8278 0.277854 26.9705 0.38306 27.0757C0.488267 27.1809 0.630957 27.2401 0.779741 27.2401H4.14568C4.29447 27.2401 4.43716 27.1809 4.54237 27.0757C4.64757 26.9705 4.70668 26.8278 4.70668 26.6791V26.1181H6.3487C6.62078 26.1484 9.53512 26.7234 12.1067 27.2311C17.1691 28.2291 17.8838 28.362 18.042 28.362H32.1952C32.6416 28.362 33.0696 28.1847 33.3853 27.8691C33.7009 27.5535 33.8782 27.1254 33.8782 26.6791V25.5571C33.8768 25.2102 33.7682 24.8723 33.5674 24.5895C33.3665 24.3068 33.0832 24.0929 32.7562 23.9773V11.5323H33.3172C33.466 11.5323 33.6087 11.4732 33.7139 11.368C33.8191 11.2628 33.8782 11.1201 33.8782 10.9713V5.36142C33.8782 5.21263 33.8191 5.06994 33.7139 4.96474C33.6087 4.85953 33.466 4.80043 33.3172 4.80043ZM3.58469 15.4592V26.1181H1.34073V14.8983H3.58469V15.4592ZM23.2194 1.43448C23.7243 1.43448 24.5096 2.60022 24.7958 4.80043H21.643C21.9291 2.60022 22.7145 1.43448 23.2194 1.43448ZM23.4701 21.6862C23.4412 21.6721 23.4112 21.6602 23.3804 21.6509L22.0974 21.2689V11.5323H31.6342V23.8741H24.9023V23.3131C24.9023 22.4716 23.8062 21.8573 23.4701 21.6891V21.6862ZM19.2924 2.55646C19.5143 2.55646 19.7313 2.62227 19.9158 2.74555C20.1003 2.86884 20.2441 3.04407 20.329 3.24908C20.4139 3.4541 20.4361 3.67969 20.3929 3.89733C20.3496 4.11497 20.2427 4.31489 20.0858 4.4718C19.9289 4.62872 19.729 4.73558 19.5113 4.77887C19.2937 4.82216 19.0681 4.79994 18.8631 4.71502C18.6581 4.6301 18.4828 4.48629 18.3595 4.30178C18.2363 4.11727 18.1705 3.90035 18.1705 3.67844C18.1705 3.38088 18.2887 3.0955 18.4991 2.88508C18.7095 2.67467 18.9949 2.55646 19.2924 2.55646V2.55646ZM17.0485 5.92241H21.5364V10.4103H17.0485V5.92241ZM20.9754 11.5323V20.9323L17.89 20.0066C17.8204 19.9455 17.7217 19.8585 17.6095 19.7604V11.5323H20.9754ZM15.3655 1.43448C15.8704 1.43448 16.6558 2.60022 16.9419 4.80043H13.7891C14.0752 2.60022 14.8606 1.43448 15.3655 1.43448ZM5.82866 5.92241H15.9265V10.4103H5.82866V5.92241ZM16.4875 11.5323V18.8218C14.565 17.269 11.2888 14.8983 9.1946 14.8983H6.95064V11.5323H16.4875ZM32.7562 26.6791C32.7562 26.8278 32.6971 26.9705 32.5919 27.0757C32.4867 27.1809 32.344 27.2401 32.1952 27.2401H18.0829C17.8103 27.2098 14.8959 26.6347 12.3244 26.127C7.26255 25.129 6.54729 24.9961 6.38965 24.9961H4.70668V16.0202H9.1946C11.3174 16.0202 15.7178 19.5612 17.2342 20.925C17.2958 20.9805 17.369 21.0217 17.4485 21.0456L23.0084 22.714C23.3061 22.8554 23.5695 23.0598 23.7804 23.3131V24.4351C23.7808 24.5762 23.7281 24.7124 23.6326 24.8164C23.5372 24.9203 23.406 24.9845 23.2654 24.9961L17.8086 23.9044L13.963 21.7042C13.899 21.6656 13.8279 21.6401 13.7539 21.6294C13.6798 21.6186 13.6044 21.6228 13.5321 21.6416C13.4597 21.6604 13.3918 21.6935 13.3324 21.739C13.273 21.7844 13.2233 21.8413 13.1862 21.9062C13.1491 21.9712 13.1253 22.0429 13.1163 22.1171C13.1073 22.1913 13.1133 22.2666 13.1338 22.3386C13.1543 22.4105 13.189 22.4775 13.2359 22.5359C13.2827 22.5942 13.3407 22.6425 13.4065 22.6781L17.3335 24.922C17.3856 24.9523 17.4425 24.9735 17.5018 24.9849L23.1117 26.1069C23.1471 26.1141 23.1832 26.1178 23.2194 26.1181C23.5673 26.1176 23.9067 26.0096 24.1908 25.8087C24.4749 25.6078 24.69 25.324 24.8064 24.9961H32.1952C32.344 24.9961 32.4867 25.0552 32.5919 25.1604C32.6971 25.2656 32.7562 25.4083 32.7562 25.5571V26.6791ZM32.7562 10.4103H22.6584V5.92241H32.7562V10.4103Z"/>
</mask>
<path d="M33.3172 4.80043H25.9245C25.6423 2.49027 24.734 0.3125 23.2194 0.3125C22.2763 0.3125 21.5684 1.16184 21.0994 2.36012C20.8931 2.07365 20.6217 1.84032 20.3075 1.67939C19.9934 1.51845 19.6454 1.43452 19.2924 1.43452C18.9394 1.43452 18.5915 1.51845 18.2773 1.67939C17.9631 1.84032 17.6917 2.07365 17.4855 2.36012C17.0165 1.16184 16.3085 0.3125 15.3655 0.3125C13.8536 0.3125 12.9426 2.49027 12.6604 4.80043H5.26767C5.11888 4.80043 4.97619 4.85953 4.87099 4.96474C4.76578 5.06994 4.70668 5.21263 4.70668 5.36142V10.9713C4.70668 11.1201 4.76578 11.2628 4.87099 11.368C4.97619 11.4732 5.11888 11.5323 5.26767 11.5323H5.82866V14.8983H4.70668V14.3373C4.70668 14.1885 4.64757 14.0458 4.54237 13.9406C4.43716 13.8354 4.29447 13.7763 4.14568 13.7763H0.779741C0.630957 13.7763 0.488267 13.8354 0.38306 13.9406C0.277854 14.0458 0.21875 14.1885 0.21875 14.3373V26.6791C0.21875 26.8278 0.277854 26.9705 0.38306 27.0757C0.488267 27.1809 0.630957 27.2401 0.779741 27.2401H4.14568C4.29447 27.2401 4.43716 27.1809 4.54237 27.0757C4.64757 26.9705 4.70668 26.8278 4.70668 26.6791V26.1181H6.3487C6.62078 26.1484 9.53512 26.7234 12.1067 27.2311C17.1691 28.2291 17.8838 28.362 18.042 28.362H32.1952C32.6416 28.362 33.0696 28.1847 33.3853 27.8691C33.7009 27.5535 33.8782 27.1254 33.8782 26.6791V25.5571C33.8768 25.2102 33.7682 24.8723 33.5674 24.5895C33.3665 24.3068 33.0832 24.0929 32.7562 23.9773V11.5323H33.3172C33.466 11.5323 33.6087 11.4732 33.7139 11.368C33.8191 11.2628 33.8782 11.1201 33.8782 10.9713V5.36142C33.8782 5.21263 33.8191 5.06994 33.7139 4.96474C33.6087 4.85953 33.466 4.80043 33.3172 4.80043ZM3.58469 15.4592V26.1181H1.34073V14.8983H3.58469V15.4592ZM23.2194 1.43448C23.7243 1.43448 24.5096 2.60022 24.7958 4.80043H21.643C21.9291 2.60022 22.7145 1.43448 23.2194 1.43448ZM23.4701 21.6862C23.4412 21.6721 23.4112 21.6602 23.3804 21.6509L22.0974 21.2689V11.5323H31.6342V23.8741H24.9023V23.3131C24.9023 22.4716 23.8062 21.8573 23.4701 21.6891V21.6862ZM19.2924 2.55646C19.5143 2.55646 19.7313 2.62227 19.9158 2.74555C20.1003 2.86884 20.2441 3.04407 20.329 3.24908C20.4139 3.4541 20.4361 3.67969 20.3929 3.89733C20.3496 4.11497 20.2427 4.31489 20.0858 4.4718C19.9289 4.62872 19.729 4.73558 19.5113 4.77887C19.2937 4.82216 19.0681 4.79994 18.8631 4.71502C18.6581 4.6301 18.4828 4.48629 18.3595 4.30178C18.2363 4.11727 18.1705 3.90035 18.1705 3.67844C18.1705 3.38088 18.2887 3.0955 18.4991 2.88508C18.7095 2.67467 18.9949 2.55646 19.2924 2.55646V2.55646ZM17.0485 5.92241H21.5364V10.4103H17.0485V5.92241ZM20.9754 11.5323V20.9323L17.89 20.0066C17.8204 19.9455 17.7217 19.8585 17.6095 19.7604V11.5323H20.9754ZM15.3655 1.43448C15.8704 1.43448 16.6558 2.60022 16.9419 4.80043H13.7891C14.0752 2.60022 14.8606 1.43448 15.3655 1.43448ZM5.82866 5.92241H15.9265V10.4103H5.82866V5.92241ZM16.4875 11.5323V18.8218C14.565 17.269 11.2888 14.8983 9.1946 14.8983H6.95064V11.5323H16.4875ZM32.7562 26.6791C32.7562 26.8278 32.6971 26.9705 32.5919 27.0757C32.4867 27.1809 32.344 27.2401 32.1952 27.2401H18.0829C17.8103 27.2098 14.8959 26.6347 12.3244 26.127C7.26255 25.129 6.54729 24.9961 6.38965 24.9961H4.70668V16.0202H9.1946C11.3174 16.0202 15.7178 19.5612 17.2342 20.925C17.2958 20.9805 17.369 21.0217 17.4485 21.0456L23.0084 22.714C23.3061 22.8554 23.5695 23.0598 23.7804 23.3131V24.4351C23.7808 24.5762 23.7281 24.7124 23.6326 24.8164C23.5372 24.9203 23.406 24.9845 23.2654 24.9961L17.8086 23.9044L13.963 21.7042C13.899 21.6656 13.8279 21.6401 13.7539 21.6294C13.6798 21.6186 13.6044 21.6228 13.5321 21.6416C13.4597 21.6604 13.3918 21.6935 13.3324 21.739C13.273 21.7844 13.2233 21.8413 13.1862 21.9062C13.1491 21.9712 13.1253 22.0429 13.1163 22.1171C13.1073 22.1913 13.1133 22.2666 13.1338 22.3386C13.1543 22.4105 13.189 22.4775 13.2359 22.5359C13.2827 22.5942 13.3407 22.6425 13.4065 22.6781L17.3335 24.922C17.3856 24.9523 17.4425 24.9735 17.5018 24.9849L23.1117 26.1069C23.1471 26.1141 23.1832 26.1178 23.2194 26.1181C23.5673 26.1176 23.9067 26.0096 24.1908 25.8087C24.4749 25.6078 24.69 25.324 24.8064 24.9961H32.1952C32.344 24.9961 32.4867 25.0552 32.5919 25.1604C32.6971 25.2656 32.7562 25.4083 32.7562 25.5571V26.6791ZM32.7562 10.4103H22.6584V5.92241H32.7562V10.4103Z" fill="black" stroke="white" stroke-width="4" mask="url(#path-1-inside-1_7049_2824)"/>
</svg>
