<svg width="34" height="31" viewBox="0 0 34 31" fill="none" xmlns="http://www.w3.org/2000/svg">
<path d="M30.6399 26.2847H2.80078V18.9384C2.80078 16.7695 4.55388 15.0204 6.72772 15.0204H26.713C28.8869 15.0204 30.6399 16.7695 30.6399 18.9384V26.2847V26.2847Z" stroke="white" stroke-miterlimit="10" stroke-linecap="round" stroke-linejoin="round"/>
<path d="M0.625 26.2841C0.625 28.313 2.72872 29.9922 5.25317 29.9922H28.1837C30.7782 29.9922 32.8118 28.313 32.8118 26.2841H0.625Z" stroke="white" stroke-miterlimit="10" stroke-linecap="round" stroke-linejoin="round"/>
<path d="M2.80078 21.3872C2.80078 21.3872 6.93809 22.9964 10.5845 20.8275C11.426 20.3377 12.548 20.4077 13.2492 21.0374C14.4413 22.0868 16.6152 23.4162 19.8409 23.3462C20.5421 23.3462 21.2434 22.9264 21.6641 22.3667C22.9263 20.4776 26.2923 16.6995 30.6399 19.6381" stroke="white" stroke-miterlimit="10" stroke-linecap="round" stroke-linejoin="round"/>
<path d="M17.177 10.194H16.3355C15.494 10.194 14.7227 10.8936 14.7227 11.8032V15.0215H18.7898V11.8032C18.7197 10.8936 18.0185 10.194 17.177 10.194Z" stroke="white" stroke-miterlimit="10" stroke-linecap="round" stroke-linejoin="round"/>
<path d="M16.5456 0.538208C16.5456 0.538208 15.2834 2.77708 14.8627 4.59617C14.5822 5.85554 15.2133 7.18487 16.4755 7.53469H16.5456C16.5456 7.53469 16.6158 7.53469 16.6859 7.53469C18.2286 7.46473 19.1402 5.71561 18.2987 4.45624C17.7377 3.5467 16.8963 2.00747 16.5456 0.538208Z" stroke="white" stroke-miterlimit="10" stroke-linecap="round" stroke-linejoin="round"/>
<path d="M16.7539 6.1344V10.1924" stroke="white" stroke-miterlimit="10" stroke-linecap="round" stroke-linejoin="round"/>
</svg>
