<svg width="29" height="29" viewBox="0 0 29 29" fill="none" xmlns="http://www.w3.org/2000/svg">
<path d="M1.68224 17.1865L1.32869 17.54L1.68224 17.8936L11.5995 27.8108L11.9531 28.1644L12.3066 27.8108L24.3892 15.7282C25.8075 14.31 26.5896 12.4218 26.5896 10.416C26.5896 8.4103 25.8075 6.5221 24.3892 5.10383C21.4598 2.17442 16.6943 2.17442 13.7649 5.10383L1.68224 17.1865ZM11.953 28.3681C11.9307 28.3681 11.9099 28.36 11.8934 28.3434L1.1497 17.5997C1.11681 17.5668 1.11673 17.5133 1.1497 17.4803C1.14972 17.4803 1.14973 17.4803 1.14975 17.4803L13.6455 4.9845C16.6401 1.98993 21.5137 1.98981 24.5085 4.9845C25.96 6.43601 26.7584 8.3634 26.7584 10.416C26.7584 12.4688 25.96 14.3961 24.5086 15.8475L12.0127 28.3434C11.9961 28.36 11.9753 28.3681 11.953 28.3681Z" fill="white" stroke="white"/>
<path d="M20.6344 13.8991H10.7172C10.6706 13.8991 10.6328 13.8613 10.6328 13.8147C10.6328 13.7681 10.6706 13.7303 10.7172 13.7303H20.6345C20.681 13.7303 20.7189 13.7682 20.7189 13.8147C20.7189 13.8612 20.6811 13.8991 20.6344 13.8991Z" fill="white" stroke="white"/>
<path d="M17.2766 11.7121C16.586 11.7121 16.0234 11.1495 16.0234 10.459C16.0234 9.76841 16.586 9.20581 17.2766 9.20581C17.9671 9.20581 18.5297 9.76841 18.5297 10.459C18.5297 11.1495 17.9671 11.7121 17.2766 11.7121ZM17.2766 9.37457C16.6782 9.37457 16.1922 9.86058 16.1922 10.459C16.1922 11.0573 16.6782 11.5433 17.2766 11.5433C17.8749 11.5433 18.361 11.0573 18.361 10.459C18.361 9.86055 17.8749 9.37457 17.2766 9.37457Z" fill="white" stroke="white"/>
<path d="M14.0227 18.3759C13.3321 18.3759 12.7695 17.8133 12.7695 17.1228C12.7695 16.4322 13.3321 15.8696 14.0227 15.8696C14.7132 15.8696 15.2758 16.4322 15.2758 17.1228C15.2758 17.8133 14.7132 18.3759 14.0227 18.3759ZM14.0227 16.0384C13.4243 16.0384 12.9383 16.5244 12.9383 17.1228C12.9383 17.7211 13.4243 18.2072 14.0227 18.2072C14.621 18.2072 15.1071 17.7211 15.1071 17.1228C15.1071 16.5244 14.621 16.0384 14.0227 16.0384Z" fill="white" stroke="white"/>
<path d="M13.5458 26.6903C13.5623 26.7068 13.5831 26.715 13.6054 26.715C13.6277 26.715 13.6485 26.7069 13.6653 26.6901C13.6981 26.657 13.698 26.6037 13.6651 26.5709L2.92152 15.8272C2.92149 15.8272 2.92146 15.8272 2.92143 15.8272C2.88841 15.7942 2.83499 15.7943 2.80209 15.8271C2.80206 15.8271 2.80203 15.8272 2.802 15.8272M13.5458 26.6903L14.0187 27.0438C13.9045 27.1579 13.755 27.215 13.6054 27.215C13.4559 27.215 13.3063 27.1579 13.1922 27.0438L2.44849 16.3001C2.22029 16.0719 2.22029 15.7019 2.44849 15.4736L2.802 15.8272M13.5458 26.6903L2.80205 15.9465C2.76916 15.9136 2.76907 15.8602 2.802 15.8272M13.5458 26.6903L2.802 15.8272" fill="white" stroke="white"/>
<path d="M15.2617 25.0592C15.2393 25.0592 15.2186 25.051 15.202 25.0345L4.4583 14.2908C4.42538 14.2579 4.42532 14.2044 4.45834 14.1713C4.49124 14.1385 4.54466 14.1385 4.57768 14.1714C4.57771 14.1714 4.57774 14.1714 4.57777 14.1715L15.3213 24.9151C15.3542 24.948 15.3543 25.0014 15.3214 25.0344C15.3047 25.0511 15.2839 25.0592 15.2617 25.0592Z" fill="white" stroke="white"/>
<path d="M21.9516 7.62165C21.9293 7.62165 21.9085 7.61356 21.8918 7.59684C21.859 7.56394 21.8589 7.51056 21.8919 7.47755C21.8919 7.47753 21.8919 7.47752 21.8919 7.4775L28.0278 1.34164C28.0608 1.30867 28.1143 1.3086 28.1474 1.34169C28.1802 1.3746 28.1802 1.42795 28.1473 1.46094C28.1473 1.46095 28.1472 1.46097 28.1472 1.46098L22.0115 7.59675C21.9946 7.61355 21.9738 7.62165 21.9516 7.62165Z" fill="white" stroke="white"/>
</svg>
